<mxfile host="app.diagrams.net" modified="2023-08-03T10:48:13.062Z" agent="Mozilla/5.0 (Windows NT 10.0; Win64; x64) AppleWebKit/537.36 (KHTML, like Gecko) Chrome/115.0.0.0 Safari/537.36" version="21.6.6" etag="Z9ssvFlP8yModWS24L6A" type="github">
  <diagram name="Pagina-1" id="5yQQ3NLz3W_VijVYytez">
    <mxGraphModel>
      <root>
        <mxCell id="0" />
        <mxCell id="1" parent="0" />
      </root>
    </mxGraphModel>
  </diagram>
</mxfile>
